<svg width="1280" height="720" xmlns="http://www.w3.org/2000/svg" xmlns:xlink="http://www.w3.org/1999/xlink" overflow="hidden"><defs><filter id="fx0" x="-10%" y="-10%" width="120%" height="120%" filterUnits="userSpaceOnUse" primitiveUnits="userSpaceOnUse"><feComponentTransfer color-interpolation-filters="sRGB"><feFuncR type="discrete" tableValues="0.65098 0.65098"/><feFuncG type="discrete" tableValues="0.65098 0.65098"/><feFuncB type="discrete" tableValues="0.65098 0.65098"/><feFuncA type="linear" slope="0.4" intercept="0"/></feComponentTransfer><feGaussianBlur stdDeviation="6.66667 6.66667"/></filter><filter id="fx1" x="-10%" y="-10%" width="120%" height="120%" filterUnits="userSpaceOnUse" primitiveUnits="userSpaceOnUse"><feComponentTransfer color-interpolation-filters="sRGB"><feFuncR type="discrete" tableValues="0.65098 0.65098"/><feFuncG type="discrete" tableValues="0.65098 0.65098"/><feFuncB type="discrete" tableValues="0.65098 0.65098"/><feFuncA type="linear" slope="0.4" intercept="0"/></feComponentTransfer><feGaussianBlur stdDeviation="6.66667 6.66667"/></filter><filter id="fx2" x="-10%" y="-10%" width="120%" height="120%" filterUnits="userSpaceOnUse" primitiveUnits="userSpaceOnUse"><feComponentTransfer color-interpolation-filters="sRGB"><feFuncR type="discrete" tableValues="0.65098 0.65098"/><feFuncG type="discrete" tableValues="0.65098 0.65098"/><feFuncB type="discrete" tableValues="0.65098 0.65098"/><feFuncA type="linear" slope="0.4" intercept="0"/></feComponentTransfer><feGaussianBlur stdDeviation="6.66667 6.66667"/></filter><filter id="fx3" x="-10%" y="-10%" width="120%" height="120%" filterUnits="userSpaceOnUse" primitiveUnits="userSpaceOnUse"><feComponentTransfer color-interpolation-filters="sRGB"><feFuncR type="discrete" tableValues="0.65098 0.65098"/><feFuncG type="discrete" tableValues="0.65098 0.65098"/><feFuncB type="discrete" tableValues="0.65098 0.65098"/><feFuncA type="linear" slope="0.4" intercept="0"/></feComponentTransfer><feGaussianBlur stdDeviation="6.66667 6.66667"/></filter><filter id="fx4" x="-10%" y="-10%" width="120%" height="120%" filterUnits="userSpaceOnUse" primitiveUnits="userSpaceOnUse"><feComponentTransfer color-interpolation-filters="sRGB"><feFuncR type="discrete" tableValues="0.65098 0.65098"/><feFuncG type="discrete" tableValues="0.65098 0.65098"/><feFuncB type="discrete" tableValues="0.65098 0.65098"/><feFuncA type="linear" slope="0.4" intercept="0"/></feComponentTransfer><feGaussianBlur stdDeviation="6.66667 6.66667"/></filter><filter id="fx5" x="-10%" y="-10%" width="120%" height="120%" filterUnits="userSpaceOnUse" primitiveUnits="userSpaceOnUse"><feComponentTransfer color-interpolation-filters="sRGB"><feFuncR type="discrete" tableValues="0.65098 0.65098"/><feFuncG type="discrete" tableValues="0.65098 0.65098"/><feFuncB type="discrete" tableValues="0.65098 0.65098"/><feFuncA type="linear" slope="0.4" intercept="0"/></feComponentTransfer><feGaussianBlur stdDeviation="6.66667 6.66667"/></filter><filter id="fx6" x="-10%" y="-10%" width="120%" height="120%" filterUnits="userSpaceOnUse" primitiveUnits="userSpaceOnUse"><feComponentTransfer color-interpolation-filters="sRGB"><feFuncR type="discrete" tableValues="0.65098 0.65098"/><feFuncG type="discrete" tableValues="0.65098 0.65098"/><feFuncB type="discrete" tableValues="0.65098 0.65098"/><feFuncA type="linear" slope="0.4" intercept="0"/></feComponentTransfer><feGaussianBlur stdDeviation="6.66667 6.66667"/></filter><filter id="fx7" x="-10%" y="-10%" width="120%" height="120%" filterUnits="userSpaceOnUse" primitiveUnits="userSpaceOnUse"><feComponentTransfer color-interpolation-filters="sRGB"><feFuncR type="discrete" tableValues="0.65098 0.65098"/><feFuncG type="discrete" tableValues="0.65098 0.65098"/><feFuncB type="discrete" tableValues="0.65098 0.65098"/><feFuncA type="linear" slope="0.4" intercept="0"/></feComponentTransfer><feGaussianBlur stdDeviation="6.66667 6.66667"/></filter><filter id="fx8" x="-10%" y="-10%" width="120%" height="120%" filterUnits="userSpaceOnUse" primitiveUnits="userSpaceOnUse"><feComponentTransfer color-interpolation-filters="sRGB"><feFuncR type="discrete" tableValues="0.65098 0.65098"/><feFuncG type="discrete" tableValues="0.65098 0.65098"/><feFuncB type="discrete" tableValues="0.65098 0.65098"/><feFuncA type="linear" slope="0.4" intercept="0"/></feComponentTransfer><feGaussianBlur stdDeviation="6.66667 6.66667"/></filter><filter id="fx9" x="-10%" y="-10%" width="120%" height="120%" filterUnits="userSpaceOnUse" primitiveUnits="userSpaceOnUse"><feComponentTransfer color-interpolation-filters="sRGB"><feFuncR type="discrete" tableValues="0.65098 0.65098"/><feFuncG type="discrete" tableValues="0.65098 0.65098"/><feFuncB type="discrete" tableValues="0.65098 0.65098"/><feFuncA type="linear" slope="0.4" intercept="0"/></feComponentTransfer><feGaussianBlur stdDeviation="6.66667 6.66667"/></filter><filter id="fx10" x="-10%" y="-10%" width="120%" height="120%" filterUnits="userSpaceOnUse" primitiveUnits="userSpaceOnUse"><feComponentTransfer color-interpolation-filters="sRGB"><feFuncR type="discrete" tableValues="0.65098 0.65098"/><feFuncG type="discrete" tableValues="0.65098 0.65098"/><feFuncB type="discrete" tableValues="0.65098 0.65098"/><feFuncA type="linear" slope="0.4" intercept="0"/></feComponentTransfer><feGaussianBlur stdDeviation="6.66667 6.66667"/></filter><clipPath id="clip11"><rect x="0" y="0" width="1280" height="720"/></clipPath><clipPath id="clip12"><rect x="-3" y="-3" width="293" height="518"/></clipPath><clipPath id="clip13"><rect x="0" y="0" width="286" height="512"/></clipPath><linearGradient x1="118.801" y1="344.22" x2="503.199" y2="543.78" gradientUnits="userSpaceOnUse" spreadMethod="reflect" id="fill14"><stop offset="0" stop-color="#EDEEF3"/><stop offset="0.06" stop-color="#EDEEF3"/><stop offset="0.31" stop-color="#EDEEF3"/><stop offset="1" stop-color="#FFFFFF"/></linearGradient><clipPath id="clip15"><rect x="-3" y="-3" width="286" height="188"/></clipPath><clipPath id="clip16"><rect x="0" y="0" width="279" height="182"/></clipPath><linearGradient x1="523.193" y1="13.2153" x2="645.807" y2="220.785" gradientUnits="userSpaceOnUse" spreadMethod="reflect" id="fill17"><stop offset="0" stop-color="#EDEEF3"/><stop offset="0.06" stop-color="#EDEEF3"/><stop offset="0.31" stop-color="#EDEEF3"/><stop offset="1" stop-color="#FFFFFF"/></linearGradient><clipPath id="clip18"><rect x="-3" y="-3" width="413" height="308"/></clipPath><clipPath id="clip19"><rect x="0" y="0" width="407" height="300"/></clipPath><linearGradient x1="514.892" y1="165.958" x2="758.108" y2="510.042" gradientUnits="userSpaceOnUse" spreadMethod="reflect" id="fill20"><stop offset="0" stop-color="#EDEEF3"/><stop offset="0.06" stop-color="#EDEEF3"/><stop offset="0.31" stop-color="#EDEEF3"/><stop offset="1" stop-color="#FFFFFF"/></linearGradient><clipPath id="clip21"><rect x="-3" y="-3" width="445" height="333"/></clipPath><clipPath id="clip22"><rect x="0" y="0" width="439" height="327"/></clipPath><linearGradient x1="903.484" y1="348.426" x2="1173.52" y2="724.574" gradientUnits="userSpaceOnUse" spreadMethod="reflect" id="fill23"><stop offset="0" stop-color="#EDEEF3"/><stop offset="0.06" stop-color="#EDEEF3"/><stop offset="0.31" stop-color="#EDEEF3"/><stop offset="1" stop-color="#FFFFFF"/></linearGradient><clipPath id="clip24"><rect x="-3" y="-3" width="235" height="206"/></clipPath><clipPath id="clip25"><rect x="0" y="0" width="227" height="199"/></clipPath><linearGradient x1="855.045" y1="201.232" x2="1009.95" y2="383.768" gradientUnits="userSpaceOnUse" spreadMethod="reflect" id="fill26"><stop offset="0" stop-color="#EDEEF3"/><stop offset="0.06" stop-color="#EDEEF3"/><stop offset="0.31" stop-color="#EDEEF3"/><stop offset="1" stop-color="#FFFFFF"/></linearGradient><clipPath id="clip27"><rect x="-3" y="-3" width="235" height="206"/></clipPath><clipPath id="clip28"><rect x="0" y="0" width="227" height="199"/></clipPath><linearGradient x1="1067.05" y1="201.232" x2="1221.95" y2="383.768" gradientUnits="userSpaceOnUse" spreadMethod="reflect" id="fill29"><stop offset="0" stop-color="#EDEEF3"/><stop offset="0.06" stop-color="#EDEEF3"/><stop offset="0.31" stop-color="#EDEEF3"/><stop offset="1" stop-color="#FFFFFF"/></linearGradient><clipPath id="clip30"><rect x="-3" y="-3" width="413" height="239"/></clipPath><clipPath id="clip31"><rect x="0" y="0" width="407" height="231"/></clipPath><linearGradient x1="559.326" y1="435.461" x2="713.674" y2="733.539" gradientUnits="userSpaceOnUse" spreadMethod="reflect" id="fill32"><stop offset="0" stop-color="#EDEEF3"/><stop offset="0.06" stop-color="#EDEEF3"/><stop offset="0.31" stop-color="#EDEEF3"/><stop offset="1" stop-color="#FFFFFF"/></linearGradient><clipPath id="clip33"><rect x="-3" y="-3" width="286" height="185"/></clipPath><clipPath id="clip34"><rect x="0" y="0" width="279" height="178"/></clipPath><linearGradient x1="1059.79" y1="15.6899" x2="1177.21" y2="220.31" gradientUnits="userSpaceOnUse" spreadMethod="reflect" id="fill35"><stop offset="0" stop-color="#EDEEF3"/><stop offset="0.06" stop-color="#EDEEF3"/><stop offset="0.31" stop-color="#EDEEF3"/><stop offset="1" stop-color="#FFFFFF"/></linearGradient><clipPath id="clip36"><rect x="-3" y="-3" width="286" height="188"/></clipPath><clipPath id="clip37"><rect x="0" y="0" width="279" height="182"/></clipPath><linearGradient x1="790.193" y1="12.2153" x2="912.807" y2="219.785" gradientUnits="userSpaceOnUse" spreadMethod="reflect" id="fill38"><stop offset="0" stop-color="#EDEEF3"/><stop offset="0.06" stop-color="#EDEEF3"/><stop offset="0.31" stop-color="#EDEEF3"/><stop offset="1" stop-color="#FFFFFF"/></linearGradient><clipPath id="clip39"><rect x="-3" y="-3" width="203" height="756"/></clipPath><clipPath id="clip40"><rect x="0" y="0" width="196" height="740"/></clipPath><linearGradient x1="-57.0054" y1="327.934" x2="237.005" y2="392.066" gradientUnits="userSpaceOnUse" spreadMethod="reflect" id="fill41"><stop offset="0" stop-color="#2C5FD6"/><stop offset="0.36" stop-color="#8184C9"/><stop offset="1" stop-color="#FCD09E"/></linearGradient><clipPath id="clip42"><rect x="-3" y="-3" width="293" height="188"/></clipPath><clipPath id="clip43"><rect x="0" y="0" width="286" height="182"/></clipPath><linearGradient x1="250.567" y1="7.67448" x2="371.433" y2="218.326" gradientUnits="userSpaceOnUse" spreadMethod="reflect" id="fill44"><stop offset="0" stop-color="#EDEEF3"/><stop offset="0.06" stop-color="#EDEEF3"/><stop offset="0.31" stop-color="#EDEEF3"/><stop offset="1" stop-color="#FFFFFF"/></linearGradient></defs><g clip-path="url(#clip11)"><rect x="0" y="0" width="1280" height="720" fill="#FFFFFF"/><path d="M13.5001 49.9228C13.5001 32.5685 27.5685 18.5001 44.9227 18.5001L1236.08 18.5001C1253.43 18.5001 1267.5 32.5685 1267.5 49.9228L1267.5 671.077C1267.5 688.432 1253.43 702.5 1236.08 702.5L44.9227 702.5C27.5685 702.5 13.5001 688.432 13.5001 671.077Z" stroke="#FFFFFF" stroke-width="1.33333" stroke-miterlimit="8" fill="#F3F4F7" fill-rule="evenodd"/><g clip-path="url(#clip12)" filter="url(#fx0)" transform="translate(182 202)"><g clip-path="url(#clip13)"><path d="M21.1421 61.8097C21.1421 39.3496 39.3496 21.1421 61.8097 21.1421L224.475 21.1421C246.935 21.1421 265.142 39.3496 265.142 61.8097L265.142 450.475C265.142 472.935 246.935 491.142 224.475 491.142L61.8097 491.142C39.3496 491.142 21.1421 472.935 21.1421 450.475Z" fill="#FF0000" fill-rule="evenodd"/></g></g><path d="M189 249.668C189 227.207 207.208 209 229.668 209L392.332 209C414.792 209 433 227.207 433 249.668L433 638.332C433 660.793 414.792 679 392.332 679L229.668 679C207.208 679 189 660.793 189 638.332Z" fill="url(#fill14)" fill-rule="evenodd"/><g clip-path="url(#clip15)" filter="url(#fx1)" transform="translate(459 40)"><g clip-path="url(#clip16)"><path d="M21.1422 44.4759C21.1422 31.589 31.589 21.1421 44.4759 21.1421L234.808 21.1421C247.695 21.1421 258.142 31.589 258.142 44.4759L258.142 137.808C258.142 150.695 247.695 161.142 234.808 161.142L44.4759 161.142C31.589 161.142 21.1422 150.695 21.1422 137.808Z" fill="#FF0000" fill-rule="evenodd"/></g></g><path d="M466 70.3338C466 57.4469 476.447 47 489.334 47L679.666 47C692.553 47 703 57.4469 703 70.3338L703 163.666C703 176.553 692.553 187 679.666 187L489.334 187C476.447 187 466 176.553 466 163.666Z" fill="url(#fill17)" fill-rule="evenodd"/><g clip-path="url(#clip18)" filter="url(#fx2)" transform="translate(447 202)"><g clip-path="url(#clip19)"><path d="M21.1422 64.143C21.1422 40.3943 40.3943 21.1421 64.143 21.1421L343.141 21.1421C366.89 21.1421 386.142 40.3943 386.142 64.143L386.142 236.141C386.142 259.89 366.89 279.142 343.141 279.142L64.143 279.142C40.3943 279.142 21.1422 259.89 21.1422 236.141Z" fill="#FF0000" fill-rule="evenodd"/></g></g><path d="M454 252.001C454 228.252 473.252 209 497.001 209L775.999 209C799.748 209 819 228.252 819 252.001L819 423.999C819 447.748 799.748 467 775.999 467L497.001 467C473.252 467 454 447.748 454 423.999Z" fill="url(#fill20)" fill-rule="evenodd"/><g clip-path="url(#clip21)" filter="url(#fx3)" transform="translate(833 387)"><g clip-path="url(#clip22)"><path d="M21.1422 68.6432C21.1422 42.4091 42.4091 21.1422 68.6432 21.1422L370.641 21.1422C396.875 21.1422 418.142 42.4091 418.142 68.6432L418.142 258.641C418.142 284.875 396.875 306.142 370.641 306.142L68.6432 306.142C42.4091 306.142 21.1422 284.875 21.1422 258.641Z" fill="#FF0000" fill-rule="evenodd"/></g></g><path d="M840 441.501C840 415.267 861.267 394 887.501 394L1189.5 394C1215.73 394 1237 415.267 1237 441.501L1237 631.499C1237 657.733 1215.73 679 1189.5 679L887.501 679C861.267 679 840 657.733 840 631.499Z" fill="url(#fill23)" fill-rule="evenodd"/><g clip-path="url(#clip24)" filter="url(#fx4)" transform="translate(833 207)"><g clip-path="url(#clip25)"><path d="M21.1422 47.3094C21.1422 32.8576 32.8576 21.1421 47.3094 21.1421L179.975 21.1421C194.427 21.1421 206.142 32.8576 206.142 47.3094L206.142 151.975C206.142 166.427 194.427 178.142 179.975 178.142L47.3094 178.142C32.8576 178.142 21.1422 166.427 21.1422 151.975Z" fill="#FF0000" fill-rule="evenodd"/></g></g><path d="M840 240.167C840 225.715 851.715 214 866.167 214L998.833 214C1013.28 214 1025 225.715 1025 240.167L1025 344.833C1025 359.285 1013.28 371 998.833 371L866.167 371C851.715 371 840 359.285 840 344.833Z" fill="url(#fill26)" fill-rule="evenodd"/><g clip-path="url(#clip27)" filter="url(#fx5)" transform="translate(1045 207)"><g clip-path="url(#clip28)"><path d="M21.1421 47.3094C21.1421 32.8576 32.8576 21.1421 47.3094 21.1421L179.975 21.1421C194.427 21.1421 206.142 32.8576 206.142 47.3094L206.142 151.975C206.142 166.427 194.427 178.142 179.975 178.142L47.3094 178.142C32.8576 178.142 21.1421 166.427 21.1421 151.975Z" fill="#FF0000" fill-rule="evenodd"/></g></g><path d="M1052 240.167C1052 225.715 1063.72 214 1078.17 214L1210.83 214C1225.28 214 1237 225.715 1237 240.167L1237 344.833C1237 359.285 1225.28 371 1210.83 371L1078.17 371C1063.72 371 1052 359.285 1052 344.833Z" fill="url(#fill29)" fill-rule="evenodd"/><g clip-path="url(#clip30)" filter="url(#fx6)" transform="translate(447 483)"><g clip-path="url(#clip31)"><path d="M21.1422 52.6426C21.1422 35.2454 35.2454 21.1422 52.6426 21.1422L354.642 21.1422C372.039 21.1422 386.142 35.2454 386.142 52.6426L386.142 178.642C386.142 196.039 372.039 210.142 354.642 210.142L52.6426 210.142C35.2454 210.142 21.1422 196.039 21.1422 178.642Z" fill="#FF0000" fill-rule="evenodd"/></g></g><path d="M454 521.5C454 504.103 468.103 490 485.5 490L787.5 490C804.897 490 819 504.103 819 521.5L819 647.5C819 664.897 804.897 679 787.5 679L485.5 679C468.103 679 454 664.897 454 647.5Z" fill="url(#fill32)" fill-rule="evenodd"/><g clip-path="url(#clip33)" filter="url(#fx7)" transform="translate(993 43)"><g clip-path="url(#clip34)"><path d="M21.1422 43.8093C21.1422 31.2906 31.2906 21.1421 43.8093 21.1421L235.475 21.1421C247.994 21.1421 258.142 31.2906 258.142 43.8093L258.142 134.475C258.142 146.994 247.994 157.142 235.475 157.142L43.8093 157.142C31.2906 157.142 21.1422 146.994 21.1422 134.475Z" fill="#FF0000" fill-rule="evenodd"/></g></g><path d="M1000 72.6671C1000 60.1484 1010.15 50 1022.67 50L1214.33 50C1226.85 50 1237 60.1484 1237 72.6671L1237 163.333C1237 175.852 1226.85 186 1214.33 186L1022.67 186C1010.15 186 1000 175.852 1000 163.333Z" fill="url(#fill35)" fill-rule="evenodd"/><g clip-path="url(#clip36)" filter="url(#fx8)" transform="translate(726 39)"><g clip-path="url(#clip37)"><path d="M21.1422 44.4759C21.1422 31.589 31.589 21.1421 44.4759 21.1421L234.808 21.1421C247.695 21.1421 258.142 31.589 258.142 44.4759L258.142 137.808C258.142 150.695 247.695 161.142 234.808 161.142L44.4759 161.142C31.589 161.142 21.1422 150.695 21.1422 137.808Z" fill="#FF0000" fill-rule="evenodd"/></g></g><path d="M733 69.3338C733 56.4469 743.447 46 756.334 46L946.666 46C959.553 46 970 56.4469 970 69.3338L970 162.666C970 175.553 959.553 186 946.666 186L756.334 186C743.447 186 733 175.553 733 162.666Z" fill="url(#fill38)" fill-rule="evenodd"/><g clip-path="url(#clip39)" filter="url(#fx9)" transform="translate(6 0)"><g clip-path="url(#clip40)"><path d="M21.1421 69.6009C21.1421 42.8379 42.8379 21.1421 69.601 21.1421L126.683 21.1421C153.446 21.1421 175.142 42.8379 175.142 69.6009L175.142 678.683C175.142 705.446 153.446 727.142 126.683 727.142L69.601 727.142C42.8379 727.142 21.1421 705.446 21.1421 678.683Z" fill="#FF0000" fill-rule="evenodd"/></g></g><path d="M13 55.4587C13 28.6957 34.6958 7 61.4588 7L118.541 7C145.304 7 167 28.6957 167 55.4587L167 664.541C167 691.304 145.304 713 118.541 713L61.4588 713C34.6958 713 13 691.304 13 664.541Z" fill="url(#fill41)" fill-rule="evenodd"/><g clip-path="url(#clip42)" filter="url(#fx10)" transform="translate(182 36)"><g clip-path="url(#clip43)"><path d="M21.1421 44.4759C21.1421 31.589 31.589 21.1421 44.4758 21.1421L241.808 21.1421C254.695 21.1421 265.142 31.589 265.142 44.4759L265.142 137.808C265.142 150.695 254.695 161.142 241.808 161.142L44.4758 161.142C31.589 161.142 21.1421 150.695 21.1421 137.808Z" fill="#FF0000" fill-rule="evenodd"/></g></g><path d="M189 66.3337C189 53.4469 199.447 43 212.334 43L409.666 43C422.553 43 433 53.4469 433 66.3337L433 159.666C433 172.553 422.553 183 409.666 183L212.334 183C199.447 183 189 172.553 189 159.666Z" fill="url(#fill44)" fill-rule="evenodd"/><path d="M-38 191C-38 149.579-1.51121 116 43.5 116 88.5112 116 125 149.579 125 191 125 232.421 88.5112 266 43.5 266-1.51121 266-38 232.421-38 191Z" fill="#E7E6E6" fill-rule="evenodd" fill-opacity="0.258824"/><path d="M-39 352C-39 310.579-2.28735 277 43 277 88.2873 277 125 310.579 125 352 125 393.421 88.2873 427 43 427-2.28735 427-39 393.421-39 352Z" fill="#E7E6E6" fill-rule="evenodd" fill-opacity="0.258824"/><path d="M-39 513C-39 471.579-2.28735 438 43 438 88.2873 438 125 471.579 125 513 125 554.421 88.2873 588 43 588-2.28735 588-39 554.421-39 513Z" fill="#E7E6E6" fill-rule="evenodd" fill-opacity="0.258824"/></g></svg>